<?xml version="1.0" standalone="no"?>
<!DOCTYPE svg PUBLIC "-//W3C//DTD SVG 20010904//EN"
 "http://www.w3.org/TR/2001/REC-SVG-20010904/DTD/svg10.dtd">
<svg version="1.0" xmlns="http://www.w3.org/2000/svg"
 width="500.000000pt" height="182.000000pt" viewBox="0 0 500.000000 182.000000"
 preserveAspectRatio="xMidYMid meet">

<g transform="translate(0.000000,182.000000) scale(0.100000,-0.100000)"
fill="#000000" stroke="none">
<path d="M2141 1724 c-29 -37 -26 -70 10 -106 l30 -31 -7 -363 -7 -363 -29
-27 c-15 -15 -28 -33 -28 -39 0 -6 18 -29 40 -50 l40 -39 42 42 42 42 -33 34
-34 35 8 366 7 365 29 29 c34 35 37 68 8 105 -16 20 -29 26 -59 26 -30 0 -43
-6 -59 -26z m95 -41 c5 -19 2 -30 -11 -40 -11 -7 -22 -13 -25 -13 -3 0 -14 6
-25 13 -13 10 -16 21 -11 40 5 22 12 27 36 27 24 0 31 -5 36 -27z"/>
<path d="M1197 1593 c-7 -40 -9 -42 -50 -48 -24 -4 -75 -8 -113 -9 -68 -2 -69
-3 -75 -32 -4 -16 -7 -38 -7 -49 0 -15 2 -14 8 5 l7 25 6 -25 c3 -14 11 -43
16 -65 l11 -40 -5 45 c-3 25 -8 60 -11 78 l-6 32 100 0 100 0 7 -31 c7 -31 -2
-461 -11 -534 -4 -36 -10 -43 -51 -65 -25 -14 -47 -29 -47 -34 -1 -5 26 -9 59
-9 138 0 195 4 195 13 0 6 -21 20 -47 33 l-48 22 -6 155 c-9 229 -10 423 -1
437 5 7 42 12 102 14 108 2 100 10 87 -96 l-6 -50 11 53 c11 53 27 70 29 30 1
-16 3 -18 6 -6 2 9 -1 35 -7 58 -10 38 -14 42 -38 37 -28 -6 -181 9 -190 18
-3 2 -8 22 -12 42 l-6 38 -7 -42z"/>
<path d="M2818 1448 c23 -12 23 -12 20 -196 -3 -168 -5 -185 -22 -198 -29 -21
-16 -25 65 -22 73 3 74 3 44 18 -16 8 -36 28 -44 44 -16 34 -29 296 -15 295 5
0 53 -53 106 -117 54 -64 114 -135 133 -157 20 -22 43 -50 52 -62 8 -13 22
-23 29 -23 11 0 14 24 15 113 1 197 11 284 34 301 18 14 14 15 -53 16 -46 0
-71 -4 -67 -10 3 -5 12 -10 20 -10 7 0 20 -19 29 -42 18 -52 33 -282 17 -277
-12 5 -270 307 -278 327 -3 7 -24 12 -57 11 -45 0 -48 -2 -28 -11z"/>
<path d="M942 1410 c0 -14 2 -19 5 -12 2 6 2 18 0 25 -3 6 -5 1 -5 -13z"/>
<path d="M1462 1400 c0 -14 2 -19 5 -12 2 6 2 18 0 25 -3 6 -5 1 -5 -13z"/>
<path d="M925 1340 c-4 -23 -5 -43 -2 -46 2 -3 7 14 11 37 4 23 5 44 2 46 -2
2 -7 -14 -11 -37z"/>
<path d="M1472 1350 c0 -14 2 -19 5 -12 2 6 2 18 0 25 -3 6 -5 1 -5 -13z"/>
<path d="M1402 1340 c0 -14 2 -19 5 -12 2 6 2 18 0 25 -3 6 -5 1 -5 -13z"/>
<path d="M1481 1304 c0 -11 3 -14 6 -6 3 7 2 16 -1 19 -3 4 -6 -2 -5 -13z"/>
<path d="M1385 1260 c-4 -23 -5 -43 -2 -46 2 -3 7 14 11 37 4 23 5 44 2 46 -2
2 -7 -14 -11 -37z"/>
<path d="M1011 1274 c0 -11 3 -14 6 -6 3 7 2 16 -1 19 -3 4 -6 -2 -5 -13z"/>
<path d="M911 1264 c0 -11 3 -14 6 -6 3 7 2 16 -1 19 -3 4 -6 -2 -5 -13z"/>
<path d="M1021 1224 c0 -11 3 -14 6 -6 3 7 2 16 -1 19 -3 4 -6 -2 -5 -13z"/>
<path d="M902 1210 c0 -14 2 -19 5 -12 2 6 2 18 0 25 -3 6 -5 1 -5 -13z"/>
<path d="M1502 1200 c0 -14 2 -19 5 -12 2 6 2 18 0 25 -3 6 -5 1 -5 -13z"/>
<path d="M1371 1184 c0 -11 3 -14 6 -6 3 7 2 16 -1 19 -3 4 -6 -2 -5 -13z"/>
<path d="M892 1160 c0 -14 2 -19 5 -12 2 6 2 18 0 25 -3 6 -5 1 -5 -13z"/>
<path d="M1511 1154 c0 -11 3 -14 6 -6 3 7 2 16 -1 19 -3 4 -6 -2 -5 -13z"/>
<path d="M1361 1124 c0 -11 3 -14 6 -6 3 7 2 16 -1 19 -3 4 -6 -2 -5 -13z"/>
<path d="M1041 1114 c0 -11 3 -14 6 -6 3 7 2 16 -1 19 -3 4 -6 -2 -5 -13z"/>
<path d="M1352 1075 c0 -16 2 -22 5 -12 2 9 2 23 0 30 -3 6 -5 -1 -5 -18z"/>
<path d="M1052 1060 c0 -14 2 -19 5 -12 2 6 2 18 0 25 -3 6 -5 1 -5 -13z"/>
<path d="M871 1054 c0 -11 3 -14 6 -6 3 7 2 16 -1 19 -3 4 -6 -2 -5 -13z"/>
<path d="M1533 1030 l2 -35 -98 0 c-105 0 -123 -11 -63 -39 42 -20 86 -20 131
-1 42 17 49 32 36 76 l-10 34 2 -35z"/>
<path d="M861 1004 c-1 -28 4 -34 39 -48 51 -20 93 -20 136 0 61 29 42 39 -65
36 -97 -4 -99 -3 -104 20 -3 18 -5 17 -6 -8z"/>
<path d="M1400 380 c0 -6 34 -53 75 -106 63 -80 75 -92 75 -70 0 14 -4 26 -8
26 -4 0 -32 33 -62 74 -52 71 -80 97 -80 76z"/>
<path d="M1541 374 c0 -11 3 -14 6 -6 3 7 2 16 -1 19 -3 4 -6 -2 -5 -13z"/>
<path d="M1800 325 c26 -45 31 -65 28 -100 -2 -31 1 -45 9 -45 9 0 13 16 13
47 0 52 -45 153 -68 153 -9 0 -3 -19 18 -55z"/>
<path d="M2180 376 c0 -4 5 -14 10 -24 6 -9 24 -51 40 -92 18 -47 35 -76 45
-78 13 -3 15 0 9 10 -5 7 -25 51 -44 97 -19 47 -41 86 -47 89 -7 2 -13 1 -13
-2z"/>
<path d="M2560 373 c0 -23 77 -193 87 -193 8 0 -1 31 -24 83 -19 45 -38 90
-40 100 -5 17 -23 24 -23 10z"/>
<path d="M2890 325 c26 -45 31 -65 28 -100 -2 -31 1 -45 9 -45 24 0 16 96 -12
140 -14 22 -25 44 -25 50 0 5 -7 10 -16 10 -12 0 -9 -12 16 -55z"/>
<path d="M1400 190 c0 -5 5 -10 11 -10 5 0 7 5 4 10 -3 6 -8 10 -11 10 -2 0
-4 -4 -4 -10z"/>
<path d="M2485 190 c-3 -5 -1 -10 4 -10 6 0 11 5 11 10 0 6 -2 10 -4 10 -3 0
-8 -4 -11 -10z"/>
</g>
</svg>
